<?xml version="1.0" standalone="no"?>
<!DOCTYPE svg PUBLIC "-//W3C//DTD SVG 20010904//EN"
 "http://www.w3.org/TR/2001/REC-SVG-20010904/DTD/svg10.dtd">
<svg version="1.0" xmlns="http://www.w3.org/2000/svg"
 width="951.000000pt" height="951.000000pt" viewBox="0 0 951.000000 951.000000"
 preserveAspectRatio="xMidYMid meet">
<metadata>
Created by potrace 1.11, written by Peter Selinger 2001-2013
</metadata>
<g transform="translate(0.000000,951.000000) scale(0.100000,-0.100000)"
fill="#000000" stroke="none">
<path d="M4982 7298 c-1 -187 -7 -259 -25 -328 -11 -41 -23 -79 -28 -84 -7 -8
-62 -1 -204 28 -101 20 -198 36 -201 34 -2 -2 41 -93 96 -203 54 -110 97 -202
94 -206 -4 -8 -43 -21 -254 -84 -85 -25 -162 -49 -170 -51 -15 -5 2 -17 253
-174 75 -47 136 -88 137 -92 0 -5 -60 -38 -132 -74 -73 -36 -135 -68 -138 -71
-2 -2 2 -8 10 -13 55 -31 260 -166 260 -171 0 -3 -25 -36 -56 -73 -31 -37 -54
-69 -52 -70 1 -2 54 -11 117 -20 63 -9 116 -17 117 -19 1 -1 -20 -32 -47 -69
-44 -61 -62 -97 -41 -85 4 3 24 8 44 11 21 3 59 11 84 16 47 11 63 4 64 -24 0
-11 59 -86 87 -111 28 -25 28 -33 6 -82 -23 -49 -27 -52 -82 -47 -109 10 -238
11 -268 2 -41 -11 -85 -53 -112 -105 -17 -34 -82 -244 -96 -309 -2 -10 -29
-111 -60 -224 -31 -113 -58 -212 -60 -220 -1 -8 -8 -35 -15 -60 -7 -25 -13
-49 -14 -55 -1 -5 -9 -35 -18 -65 -18 -64 -62 -226 -78 -288 -6 -23 -14 -41
-18 -38 -4 2 -7 -11 -6 -30 1 -22 -4 -37 -15 -44 -9 -5 -11 -10 -4 -10 9 0 10
-7 4 -22 -9 -25 -28 -30 -50 -14 -11 8 -13 8 -7 -1 4 -7 3 -13 -1 -13 -5 0
-15 6 -22 13 -8 7 -11 7 -8 1 4 -7 -3 -11 -18 -11 -14 0 -22 4 -18 10 3 6 1 7
-5 3 -6 -4 -27 -8 -47 -10 -32 -2 -40 4 -36 27 1 5 -3 6 -9 2 -6 -3 -7 -11 -4
-17 5 -7 -2 -9 -20 -6 -14 3 -26 1 -26 -4 0 -5 -5 -6 -10 -3 -6 4 -31 7 -55 7
l-44 0 5 61 c3 34 7 64 9 67 2 3 -3 13 -10 23 -12 17 -14 17 -34 -4 -12 -13
-21 -25 -22 -28 0 -3 -3 -15 -5 -26 -4 -19 -12 -63 -13 -77 -1 -3 -16 -2 -33
3 -96 26 -266 28 -370 4 -13 -2 -34 -7 -48 -9 -50 -9 -65 -14 -95 -30 -16 -9
-36 -16 -43 -16 -7 0 -21 -5 -31 -12 -20 -12 -21 -11 -64 39 -19 21 -18 22 20
41 81 42 152 131 188 237 23 68 25 81 30 227 4 97 10 138 25 174 61 141 -6
292 -143 325 -56 13 -69 27 -73 75 -5 84 -18 122 -62 184 -100 141 -204 219
-313 235 -24 4 -46 8 -49 10 -3 1 -27 6 -55 9 -27 4 -66 11 -85 15 -63 13
-116 5 -167 -26 -56 -34 -167 -83 -203 -90 -61 -11 -137 -64 -186 -130 -96
-129 -155 -219 -187 -283 -29 -60 -32 -74 -34 -175 -2 -60 -4 -141 -6 -180 -4
-79 -3 -84 61 -212 49 -100 87 -153 114 -157 9 -1 35 -21 58 -44 23 -23 45
-41 48 -41 4 1 9 1 12 -1 3 -1 15 -3 27 -6 19 -3 79 -59 103 -94 3 -4 36 -30
74 -58 51 -39 64 -53 52 -58 -9 -3 -14 -10 -11 -14 3 -5 0 -12 -7 -17 -7 -4
-22 -26 -33 -48 -11 -22 -24 -43 -28 -46 -5 -3 -8 -9 -7 -13 1 -3 -2 -20 -5
-37 -6 -25 -17 -35 -54 -52 -25 -11 -62 -21 -82 -23 -112 -8 -194 -83 -257
-234 -18 -44 -66 -194 -70 -220 -2 -14 -7 -27 -13 -28 -5 -2 -7 -8 -4 -13 3
-5 1 -26 -5 -47 -5 -22 -12 -74 -13 -117 -3 -69 -1 -99 17 -182 3 -12 14 -32
25 -45 21 -22 24 -30 22 -58 0 -10 1 -11 5 -2 8 17 17 15 40 -7 34 -31 177
-55 294 -50 114 5 148 4 175 -5 36 -12 59 -32 50 -45 -3 -5 0 -13 6 -17 8 -5
9 -3 4 6 -4 7 -4 11 1 8 5 -2 24 -10 41 -17 20 -8 30 -18 27 -24 -5 -9 -4 -9
5 -1 8 7 25 9 46 4 19 -4 36 -5 39 -2 4 3 6 1 6 -4 0 -5 15 -18 34 -28 25 -13
33 -23 28 -35 -5 -13 -3 -14 10 -3 12 10 20 8 41 -8 15 -12 28 -20 29 -19 8 5
48 -14 48 -22 0 -6 -4 -8 -9 -4 -5 3 -12 -4 -16 -15 -4 -11 -11 -18 -16 -15
-5 4 -9 1 -9 -4 0 -6 3 -11 8 -11 11 0 38 20 27 20 -5 0 1 7 14 16 19 14 25
14 32 3 5 -8 9 -10 9 -5 0 6 7 1 16 -10 8 -10 13 -13 9 -6 -3 6 -1 12 4 12 6
0 11 -5 11 -11 0 -6 6 -9 14 -6 8 3 17 3 21 -1 4 -4 11 -8 16 -8 5 -1 11 -3
14 -4 7 -3 22 -7 36 -9 6 0 8 -11 4 -23 -5 -21 -5 -21 9 2 9 14 15 20 16 14 0
-6 10 -12 23 -12 19 -1 53 -7 67 -12 3 -1 14 -3 24 -4 30 -2 29 -21 -1 -47
-15 -13 -36 -37 -47 -53 -18 -28 -18 -29 5 -50 l23 -21 -18 22 c-18 21 -18 23
4 52 24 34 30 37 48 19 8 -8 12 -9 12 -1 0 6 -6 13 -12 16 -7 2 -10 8 -5 12 4
5 21 -5 38 -23 28 -28 69 -40 69 -19 0 5 -7 7 -15 3 -18 -7 -84 48 -72 60 4 5
12 2 17 -6 6 -8 10 -10 10 -5 0 6 -5 16 -12 23 -9 9 -8 12 5 12 17 0 20 -7 19
-45 -1 -17 0 -17 4 -2 3 9 10 15 15 12 5 -4 9 -1 9 4 0 6 -4 11 -10 11 -5 0
-10 3 -10 8 0 4 34 7 75 7 64 -1 77 -4 96 -23 11 -13 18 -26 14 -30 -4 -4 -15
3 -24 15 l-18 21 0 -31 c0 -18 2 -26 5 -19 2 6 8 12 14 12 6 0 7 -7 4 -16 -7
-19 41 -79 64 -79 8 0 15 8 15 18 0 10 6 22 14 26 8 5 9 11 3 15 -5 3 -13 -2
-17 -12 -6 -15 -8 -15 -26 7 -11 13 -22 22 -24 19 -3 -3 7 -17 21 -32 38 -38
22 -44 -17 -7 -31 30 -32 33 -15 49 16 16 18 16 38 -8 20 -24 20 -24 14 -2 -7
22 7 32 17 12 3 -6 4 -5 3 2 -2 7 -13 12 -25 11 -20 -3 -29 11 -13 20 4 2 1 2
-7 0 -7 -2 -20 2 -27 8 -14 12 -10 29 7 29 6 0 7 -4 4 -10 -3 -5 -1 -10 4 -10
6 0 11 5 11 10 0 6 5 10 11 10 5 0 7 -4 4 -10 -3 -5 -2 -10 4 -10 5 0 11 6 14
13 2 6 8 9 12 5 4 -4 3 -13 -3 -21 -8 -10 -6 -16 9 -25 11 -7 17 -17 14 -22
-11 -18 5 -32 21 -19 8 6 18 8 22 4 4 -4 1 -10 -5 -12 -7 -3 -13 -9 -13 -15 0
-7 5 -6 14 1 7 6 14 23 14 37 0 34 9 41 29 21 9 -9 13 -20 9 -24 -4 -4 -12 -1
-17 7 -9 12 -10 11 -5 -4 4 -12 -1 -27 -15 -43 -13 -12 -17 -23 -11 -23 7 0
12 5 12 11 0 6 9 8 23 4 16 -5 18 -4 7 4 -12 8 -12 13 4 30 15 17 16 23 6 36
-7 8 -8 15 -2 15 13 0 33 -25 26 -32 -3 -3 4 -21 15 -39 12 -20 21 -27 21 -18
0 9 -7 22 -15 29 -8 7 -15 17 -15 23 0 5 9 2 20 -8 11 -10 23 -15 27 -12 3 4
1 7 -5 7 -7 0 -12 4 -12 10 0 5 3 9 8 9 26 -4 34 1 22 15 -9 12 -8 15 9 13 12
-1 20 -6 17 -13 -3 -7 5 -10 20 -8 16 1 24 -2 21 -9 -2 -7 -12 -11 -22 -9 -14
3 -15 1 -4 -11 8 -8 17 -13 21 -11 3 2 8 -2 11 -8 2 -7 4 2 3 20 -1 18 -6 33
-11 34 -6 1 -16 7 -22 14 -7 7 -24 11 -37 10 -14 -2 -27 2 -30 9 -3 9 6 11 32
8 20 -3 39 -8 42 -12 5 -7 25 -12 52 -14 10 -1 18 -5 18 -9 0 -4 3 -7 8 -6 10
3 72 -12 102 -25 14 -5 31 -11 39 -13 8 -1 17 -6 20 -11 3 -4 17 -9 31 -11 14
-1 32 -5 40 -9 8 -3 21 -7 29 -9 26 -5 31 -28 10 -47 -11 -11 -22 -17 -25 -14
-8 8 8 37 17 31 5 -3 6 3 2 12 -4 12 -8 14 -11 5 -3 -9 -9 -8 -22 4 -19 17
-41 13 -39 -8 0 -9 2 -9 6 1 2 6 9 12 15 12 6 0 7 -7 4 -17 -4 -10 2 -25 15
-39 l22 -23 21 27 c11 15 20 31 18 36 -2 4 5 5 15 1 22 -8 54 -16 71 -17 6 -1
10 -4 7 -6 -3 -3 0 -11 6 -19 9 -9 8 -13 0 -13 -6 0 -14 7 -18 15 -4 12 -11 8
-30 -17 -14 -19 -31 -32 -41 -30 -13 2 -13 0 3 -10 11 -7 22 -13 25 -13 3 0
11 -4 18 -8 18 -12 15 4 -4 17 -14 11 -14 14 4 36 13 16 21 20 26 12 4 -7 3
-12 -2 -12 -6 0 -13 -7 -16 -16 -4 -11 1 -10 21 5 14 12 29 19 32 15 3 -3 -4
-13 -16 -22 -17 -13 -20 -21 -13 -32 5 -8 10 -10 10 -4 0 6 7 11 15 11 8 0 15
-4 15 -9 0 -4 5 -8 10 -8 6 0 4 10 -5 23 -8 13 -12 27 -9 30 4 4 1 13 -6 22
-7 9 -10 19 -6 22 4 4 10 3 14 -2 7 -10 15 -12 77 -19 17 -2 34 -4 38 -5 4 -1
3 -10 -3 -21 -6 -11 -16 -17 -25 -14 -8 4 -13 9 -10 13 2 4 -2 8 -10 8 -22 0
-18 -15 4 -22 11 -3 19 -11 17 -18 -1 -7 -1 -9 1 -5 2 4 12 4 21 1 11 -3 13
-2 5 4 -9 6 -7 14 6 32 15 19 24 22 46 17 21 -5 24 -10 15 -21 -8 -10 -8 -15
1 -21 8 -5 9 -3 4 6 -6 10 -4 12 8 7 11 -4 14 -2 11 7 -3 8 -1 17 5 21 6 3 11
-1 11 -9 0 -9 5 -16 11 -16 5 0 7 4 4 10 -3 5 4 10 17 9 29 -1 101 9 153 22
22 5 48 11 57 14 52 12 183 93 247 153 35 32 107 82 119 82 6 0 12 4 14 9 2 4
14 11 28 15 19 6 21 5 10 -3 -9 -7 -10 -11 -3 -11 7 0 17 8 22 18 6 9 11 13
11 8 0 -5 7 -3 15 4 8 7 15 8 15 3 0 -11 29 -11 46 0 14 8 35 -37 28 -60 -4
-13 -3 -14 3 -5 8 10 12 10 23 -3 10 -13 9 -15 -8 -15 -12 0 -23 -4 -26 -9
-10 -15 43 1 56 18 7 9 9 13 4 9 -10 -8 -36 14 -29 25 2 4 0 7 -5 7 -6 0 -12
6 -15 14 -4 9 3 16 19 19 16 3 24 0 24 -10 0 -8 -5 -11 -11 -8 -6 4 -5 -2 3
-14 15 -25 24 -26 31 -7 4 10 1 13 -9 9 -10 -4 -12 0 -8 11 3 8 9 15 12 14 4
0 9 1 12 2 13 5 47 11 68 12 13 0 21 3 18 5 -5 5 59 53 72 54 4 0 37 36 74 79
56 67 68 76 73 60 4 -11 11 -20 16 -20 6 0 7 -6 3 -12 -6 -10 -5 -10 8 -1 8 7
18 9 23 5 4 -4 2 3 -4 16 -13 24 2 32 16 8 4 -7 18 -18 29 -24 17 -9 25 -8 34
3 10 13 16 13 29 3 14 -11 14 -11 3 3 -7 9 -10 25 -6 35 3 11 -1 8 -10 -6 -12
-21 -16 -22 -21 -9 -5 12 -18 16 -48 15 -35 -1 -41 -5 -39 -20 4 -24 -17 -11
-27 17 -9 25 12 53 31 41 7 -5 9 -2 5 9 -7 18 30 70 44 61 6 -3 16 -1 23 5 7
6 26 12 42 14 17 2 34 6 40 9 5 4 16 -2 22 -13 11 -17 10 -19 -10 -16 -13 2
-17 2 -10 0 15 -6 15 -16 0 -31 -7 -7 -9 -12 -5 -12 9 0 57 50 57 60 0 5 -4
12 -10 15 -6 4 -7 -1 -3 -11 4 -12 3 -15 -6 -10 -7 4 -10 13 -8 19 3 10 12 13
62 22 27 5 248 75 254 80 2 3 11 -1 19 -8 12 -9 14 -9 9 0 -5 8 7 16 35 25 24
6 45 15 48 19 6 8 98 50 103 47 3 -3 44 31 76 62 14 13 29 24 33 22 5 -1 7 1
7 6 -4 25 2 62 10 57 5 -3 13 0 17 6 4 7 3 9 -3 6 -6 -4 -13 0 -17 8 -3 8 -2
15 3 15 4 0 8 7 8 15 0 8 -4 15 -8 15 -5 0 -6 6 -3 13 2 7 -2 44 -11 82 -21
93 -18 85 -38 124 -9 19 -17 40 -17 48 0 7 -4 13 -9 13 -5 0 -14 14 -21 31
-21 49 -110 131 -184 169 -38 19 -71 35 -75 35 -3 1 -28 8 -56 18 -100 33
-273 62 -436 73 -124 8 -123 8 -131 19 -5 6 -8 6 -8 -2 0 -6 -9 -11 -20 -10
-19 1 -25 10 -20 32 1 6 -2 6 -7 2 -4 -5 -8 -14 -8 -20 0 -6 -11 -11 -24 -11
-29 0 -37 29 -13 44 12 6 13 9 4 10 -11 0 -12 10 -6 43 4 23 7 51 6 61 -1 16
5 13 32 -13 26 -25 46 -34 90 -40 31 -4 54 -6 52 -4 -2 2 10 18 27 36 16 18
41 49 54 70 14 22 28 35 35 31 7 -4 8 -3 4 4 -7 11 13 49 43 82 16 18 177 243
228 320 21 30 40 57 44 60 3 3 34 44 68 93 56 79 83 102 93 79 2 -5 122 -97
267 -205 230 -172 268 -197 300 -197 20 0 46 7 58 15 12 8 153 194 314 413
161 218 339 460 397 536 57 76 111 154 118 172 8 19 15 35 16 36 1 2 -8 21
-21 44 l-23 41 117 181 c105 164 117 186 117 227 0 53 -10 67 -63 97 -29 16
-39 28 -40 47 0 14 -3 64 -5 111 -2 47 -6 118 -8 159 -2 61 -6 75 -20 77 -41
6 -64 -87 -65 -274 -1 -68 -3 -73 -26 -82 -14 -5 -25 -14 -25 -19 0 -5 -9 -7
-20 -4 -12 3 -36 -5 -60 -21 -22 -14 -46 -26 -53 -26 -20 0 -65 -45 -77 -75
-20 -54 -13 -86 31 -126 36 -33 40 -42 34 -66 -5 -15 -9 -30 -9 -33 -1 -3 -5
-10 -9 -17 -4 -6 -10 -33 -14 -60 -4 -31 -16 -61 -35 -83 -15 -19 -97 -134
-181 -255 -166 -238 -395 -563 -448 -635 -18 -25 -34 -46 -35 -48 -3 -5 -182
117 -229 155 -6 4 -39 28 -75 52 -36 25 -75 52 -87 62 l-23 17 30 40 c42 58
45 91 14 137 l-25 38 28 31 c16 17 47 54 68 81 22 28 48 59 58 70 82 90 100
167 57 258 -26 55 -40 67 -82 76 -20 4 -32 13 -35 26 -2 11 -4 100 -4 197 -1
182 -8 216 -41 203 -29 -11 -63 -174 -69 -330 -2 -50 -6 -58 -26 -66 -15 -6
-31 -5 -43 1 -53 28 -97 -7 -126 -99 -12 -37 -26 -62 -39 -67 -27 -12 -31 -68
-11 -138 12 -41 27 -63 66 -99 34 -32 48 -51 43 -60 -24 -39 -89 -127 -94
-127 -3 0 -23 11 -43 25 -20 14 -41 25 -46 25 -4 0 -10 4 -12 8 -1 4 -46 35
-98 69 -52 34 -126 83 -165 109 -38 27 -76 49 -85 50 -8 0 -46 5 -85 9 -38 4
-80 8 -93 8 -15 1 -21 6 -17 15 3 7 5 19 5 26 0 9 15 12 48 11 99 -3 181 34
222 100 12 19 32 36 48 40 69 17 164 99 200 173 26 52 28 132 5 158 -18 20
-81 51 -95 46 -13 -3 -9 13 12 62 10 25 23 46 28 46 4 0 30 14 56 30 l47 30
-39 45 -39 45 32 34 c46 49 63 134 41 202 -5 17 5 29 64 70 38 27 70 52 70 56
0 4 -47 30 -104 59 l-103 53 53 100 c29 56 63 121 75 146 13 25 33 62 46 83
l23 37 -24 0 c-14 0 -35 -4 -49 -9 -13 -5 -39 -12 -58 -15 -19 -3 -59 -13 -89
-21 -30 -8 -57 -15 -60 -15 -3 0 -4 46 -3 102 0 57 -2 126 -7 153 -4 28 -11
70 -14 95 -3 25 -8 55 -10 67 -3 11 -8 42 -11 67 -9 56 -18 64 -34 30 -26 -59
-214 -365 -222 -362 -4 2 -95 89 -201 193 -106 105 -200 196 -209 203 -15 11
-16 6 -17 -50z m570 -2456 c2 -4 56 -42 120 -85 l118 -77 -97 -132 c-53 -73
-119 -164 -147 -203 -28 -38 -54 -71 -58 -73 -5 -2 -8 -10 -8 -18 0 -8 -3 -14
-7 -14 -5 0 -21 -20 -38 -45 -16 -24 -33 -41 -37 -39 -5 3 -15 19 -23 35 -14
27 -14 38 6 137 18 85 27 111 46 125 13 10 21 23 17 28 -17 27 -9 69 38 212
48 144 60 171 70 149z m46 -2388 c20 -22 -5 -25 -29 -5 -23 19 -23 20 -3 18
11 0 26 -7 32 -13z m-2198 -306 c0 -5 -4 -7 -8 -4 -4 2 -8 -4 -8 -15 0 -19 1
-19 13 -3 7 10 13 21 13 26 0 4 5 8 11 8 5 0 7 -4 4 -10 -3 -5 -2 -10 4 -10 5
0 11 6 14 13 2 6 8 9 12 5 12 -11 -14 -38 -31 -31 -8 3 -18 -4 -23 -18 -5 -13
-10 -20 -10 -15 -1 6 -8 1 -17 -10 -15 -18 -15 -18 -10 0 4 11 0 23 -9 30 -22
16 -9 44 21 44 13 0 24 -5 24 -10z m105 -6 c3 -8 0 -22 -7 -31 -11 -14 -11
-14 3 -4 9 7 19 10 22 6 12 -11 8 -19 -12 -20 -24 -2 -53 29 -46 49 7 19 32
19 40 0z m405 -152 c0 -5 -4 -10 -10 -10 -5 0 -10 5 -10 10 0 6 5 10 10 10 6
0 10 -4 10 -10z"/>
<path d="M3355 2130 c3 -5 8 -10 11 -10 2 0 4 5 4 10 0 6 -5 10 -11 10 -5 0
-7 -4 -4 -10z"/>
<path d="M3475 2130 c3 -5 8 -10 11 -10 2 0 4 5 4 10 0 6 -5 10 -11 10 -5 0
-7 -4 -4 -10z"/>
<path d="M3990 4011 c0 -6 4 -13 10 -16 6 -3 7 1 4 9 -7 18 -14 21 -14 7z"/>
<path d="M3556 3908 c3 -5 10 -6 15 -3 13 9 11 12 -6 12 -8 0 -12 -4 -9 -9z"/>
<path d="M3669 3873 c-13 -16 -12 -17 4 -4 16 13 21 21 13 21 -2 0 -10 -8 -17
-17z"/>
<path d="M3590 3866 c7 -7 13 -7 20 0 6 6 3 10 -10 10 -13 0 -16 -4 -10 -10z"/>
<path d="M3960 3810 c-12 -7 -10 -9 7 -7 12 0 19 5 17 9 -6 10 -6 10 -24 -2z"/>
<path d="M4015 3809 c-3 -4 2 -6 10 -5 21 3 28 13 10 13 -9 0 -18 -4 -20 -8z"/>
<path d="M2020 3796 c0 -2 8 -10 18 -17 15 -13 16 -12 3 4 -13 16 -21 21 -21
13z"/>
<path d="M3875 3789 c-3 -4 2 -6 10 -5 21 3 28 13 10 13 -9 0 -18 -4 -20 -8z"/>
<path d="M5516 3725 c-9 -26 -7 -32 5 -12 6 10 9 21 6 23 -2 3 -7 -2 -11 -11z"/>
<path d="M5295 3710 c-3 -5 -1 -10 4 -10 6 0 11 5 11 10 0 6 -2 10 -4 10 -3 0
-8 -4 -11 -10z"/>
<path d="M5567 3709 c7 -7 15 -10 18 -7 3 3 -2 9 -12 12 -14 6 -15 5 -6 -5z"/>
<path d="M5570 3655 c0 -5 5 -17 10 -25 5 -8 10 -10 10 -5 0 6 -5 17 -10 25
-5 8 -10 11 -10 5z"/>
<path d="M1735 3161 c-3 -5 -2 -12 3 -15 5 -3 9 1 9 9 0 17 -3 19 -12 6z"/>
<path d="M1680 3030 c-9 -6 -10 -10 -3 -10 6 0 15 5 18 10 8 12 4 12 -15 0z"/>
<path d="M6280 2826 c0 -2 8 -10 18 -17 15 -13 16 -12 3 4 -13 16 -21 21 -21
13z"/>
<path d="M5806 2625 c-3 -9 -20 -22 -38 -30 -23 -10 -27 -14 -13 -14 18 0 75
40 75 54 0 12 -18 4 -24 -10z"/>
<path d="M5763 2623 c-13 -2 -23 -8 -23 -13 0 -10 38 -1 46 11 3 5 4 8 2 8 -2
-1 -13 -4 -25 -6z"/>
<path d="M5802 2585 c-13 -14 -21 -30 -19 -37 3 -8 6 -6 6 5 1 10 5 16 10 13
4 -3 13 6 19 19 14 31 13 31 -16 0z"/>
<path d="M5632 2580 c-18 -29 -15 -38 4 -12 9 13 14 25 12 27 -2 2 -9 -5 -16
-15z"/>
<path d="M5601 2581 c-8 -5 -9 -11 -3 -15 5 -3 12 1 16 9 6 17 6 18 -13 6z"/>
<path d="M5550 2549 c-7 -11 -9 -23 -6 -26 3 -4 1 -12 -5 -20 -9 -9 -8 -13 0
-13 11 0 15 13 12 38 -1 6 3 12 9 12 5 0 10 -5 10 -12 0 -6 3 -8 6 -5 4 4 1
13 -6 22 -7 8 -8 15 -3 15 16 0 32 -22 26 -36 -3 -8 -1 -14 4 -14 16 0 11 34
-6 47 -22 17 -29 16 -41 -8z"/>
<path d="M5647 2563 c-10 -10 -8 -23 4 -23 5 0 8 4 5 9 -4 5 0 12 6 14 7 3 8
6 2 6 -6 1 -14 -2 -17 -6z"/>
<path d="M5730 2559 c0 -5 5 -7 10 -4 6 3 10 8 10 11 0 2 -4 4 -10 4 -5 0 -10
-5 -10 -11z"/>
<path d="M5705 2550 c-3 -5 -1 -10 4 -10 6 0 11 5 11 10 0 6 -2 10 -4 10 -3 0
-8 -4 -11 -10z"/>
<path d="M5750 2540 c0 -5 5 -10 10 -10 6 0 10 5 10 10 0 6 -4 10 -10 10 -5 0
-10 -4 -10 -10z"/>
<path d="M5620 2530 c0 -5 5 -10 11 -10 5 0 7 5 4 10 -3 6 -8 10 -11 10 -2 0
-4 -4 -4 -10z"/>
<path d="M5725 2530 c-3 -5 -1 -10 4 -10 6 0 11 5 11 10 0 6 -2 10 -4 10 -3 0
-8 -4 -11 -10z"/>
<path d="M5782 2520 c-22 -21 -37 -27 -27 -10 3 6 -1 7 -10 3 -13 -5 -14 -7
-3 -14 19 -13 26 -11 45 10 9 11 21 17 26 14 6 -3 7 -1 3 5 -9 15 -9 15 -34
-8z"/>
<path d="M5655 2521 c3 -5 0 -11 -7 -14 -7 -2 -5 -3 4 -2 10 2 23 -4 29 -12
10 -11 9 -17 -5 -31 -17 -16 -18 -16 -11 6 3 12 3 22 -2 22 -16 0 -12 -38 5
-52 11 -9 14 -10 8 0 -4 6 -3 12 2 12 19 0 22 32 4 55 -16 23 -40 36 -27 16z"/>
<path d="M5692 2518 c2 -6 10 -13 16 -14 7 -1 8 0 2 3 -5 2 -8 9 -4 14 3 5 0
9 -6 9 -7 0 -10 -5 -8 -12z"/>
<path d="M5570 2500 c0 -5 5 -10 11 -10 5 0 7 5 4 10 -3 6 -8 10 -11 10 -2 0
-4 -4 -4 -10z"/>
<path d="M5500 2489 c0 -5 5 -7 10 -4 6 3 10 8 10 11 0 2 -4 4 -10 4 -5 0 -10
-5 -10 -11z"/>
<path d="M5605 2490 c3 -5 8 -10 11 -10 2 0 4 5 4 10 0 6 -5 10 -11 10 -5 0
-7 -4 -4 -10z"/>
<path d="M5714 2470 c0 -11 4 -20 9 -20 4 0 12 0 17 0 6 0 10 8 10 17 0 15 -2
14 -16 -3 -15 -18 -15 -18 -9 4 4 12 2 22 -3 22 -5 0 -9 -9 -8 -20z"/>
<path d="M2273 2435 c0 -8 4 -12 9 -9 5 3 6 10 3 15 -9 13 -12 11 -12 -6z"/>
<path d="M1955 2430 c3 -5 8 -10 11 -10 2 0 4 5 4 10 0 6 -5 10 -11 10 -5 0
-7 -4 -4 -10z"/>
<path d="M5690 2429 c0 -5 5 -7 10 -4 6 3 10 8 10 11 0 2 -4 4 -10 4 -5 0 -10
-5 -10 -11z"/>
<path d="M5436 2422 c-3 -5 1 -9 9 -9 8 0 12 4 9 9 -3 4 -7 8 -9 8 -2 0 -6 -4
-9 -8z"/>
<path d="M2075 2359 c-4 -6 -5 -12 -2 -15 2 -3 7 2 10 11 7 17 1 20 -8 4z"/>
<path d="M2469 2349 c-10 -6 -11 -9 -1 -9 7 0 10 -5 7 -10 -4 -6 -11 -7 -17
-4 -7 4 -8 2 -4 -5 4 -6 2 -19 -6 -28 -11 -14 -11 -16 2 -8 8 5 23 10 32 10
22 2 34 13 24 22 -4 4 -11 1 -16 -7 -5 -8 -12 -11 -16 -7 -10 10 17 39 33 33
19 -8 16 2 -5 13 -11 6 -24 6 -33 0z"/>
<path d="M2520 2310 c0 -5 5 -10 10 -10 6 0 10 5 10 10 0 6 -4 10 -10 10 -5 0
-10 -4 -10 -10z"/>
<path d="M2566 2293 c-6 -14 -5 -15 5 -6 7 7 10 15 7 18 -3 3 -9 -2 -12 -12z"/>
<path d="M5315 2300 c-3 -6 1 -7 9 -4 18 7 21 14 7 14 -6 0 -13 -4 -16 -10z"/>
<path d="M2587 2285 c-14 -36 17 -62 48 -39 16 12 17 16 5 27 -10 9 -12 9 -6
0 12 -21 -12 -14 -27 7 -12 18 -15 18 -20 5z m33 -37 c0 -6 -7 -5 -15 2 -8 7
-15 17 -15 22 0 6 7 5 15 -2 8 -7 15 -17 15 -22z"/>
<path d="M2500 2281 c-8 -6 -18 -7 -23 -4 -11 7 -28 -17 -21 -29 3 -4 11 -8
17 -8 8 0 8 3 -2 9 -7 5 -9 11 -4 14 5 3 17 -3 26 -14 16 -18 14 -24 -7 -20
-5 1 -4 -5 4 -13 7 -9 20 -15 29 -15 13 1 13 2 -2 6 -9 2 -15 8 -12 13 3 5 13
6 23 3 9 -4 4 5 -13 20 -16 14 -25 27 -19 27 17 0 67 -47 56 -54 -13 -8 -22
-46 -11 -46 5 0 9 8 9 18 0 24 19 42 37 35 8 -3 3 7 -11 22 -14 15 -26 32 -26
36 0 5 -5 9 -12 9 -6 0 -4 -7 5 -18 25 -27 21 -36 -7 -15 -13 10 -22 21 -19
26 6 9 1 9 -17 -2z"/>
<path d="M5293 2273 c9 -9 -28 -34 -45 -30 -7 2 -10 2 -5 0 4 -3 7 -12 7 -21
0 -13 4 -11 16 6 16 23 41 31 28 10 -4 -7 -3 -10 1 -5 14 12 16 47 3 47 -6 0
-8 -3 -5 -7z"/>
<path d="M5210 2245 c0 -5 10 -22 23 -37 17 -22 25 -26 37 -17 13 9 13 10 -2
5 -11 -3 -23 5 -37 27 -11 18 -21 28 -21 22z"/>
<path d="M2647 2189 c-44 -45 -46 -49 -28 -59 30 -15 40 -11 11 5 -14 8 -19
14 -13 15 7 0 27 16 44 35 23 24 38 33 51 29 10 -3 18 0 18 6 0 6 -4 8 -10 5
-5 -3 -10 -1 -10 4 0 19 -13 10 -63 -40z"/>
<path d="M5020 2228 c0 -4 4 -8 9 -8 6 0 12 4 15 8 3 5 -1 9 -9 9 -8 0 -15 -4
-15 -9z"/>
<path d="M5068 2226 c-10 -7 -18 -17 -18 -21 0 -4 6 -2 14 4 11 9 14 6 14 -13
0 -21 -3 -24 -19 -16 -23 13 -29 13 -29 -2 0 -6 3 -8 7 -5 3 4 12 2 20 -5 18
-15 28 -3 29 38 0 19 0 34 0 34 -1 0 -9 -7 -18 -14z"/>
<path d="M4992 2218 c-18 -18 -15 -35 11 -53 12 -8 21 -19 20 -23 -2 -4 2 -7
9 -7 6 0 12 6 14 13 1 7 0 8 -3 2 -6 -13 -24 -13 -20 -1 1 5 -7 16 -18 25 -17
13 -18 18 -7 35 14 24 12 27 -6 9z"/>
<path d="M2605 2210 c-3 -5 -1 -10 4 -10 6 0 11 5 11 10 0 6 -2 10 -4 10 -3 0
-8 -4 -11 -10z"/>
<path d="M4937 2213 c-4 -3 -7 -13 -7 -22 1 -13 3 -13 11 2 11 19 8 33 -4 20z"/>
<path d="M2566 2195 c-3 -8 -2 -14 2 -14 20 3 32 -2 26 -12 -3 -6 5 -3 20 6
29 20 35 30 9 17 -21 -11 -46 -5 -37 9 3 5 1 9 -4 9 -6 0 -12 -7 -16 -15z"/>
<path d="M2735 2199 c-4 -6 -5 -11 -4 -12 2 -1 14 -11 27 -21 28 -25 29 -13 0
14 -12 11 -16 20 -10 20 7 0 20 -9 29 -19 9 -11 20 -18 25 -15 4 3 8 1 8 -5 0
-5 -9 -13 -20 -16 -11 -3 -20 -10 -20 -15 0 -9 -39 -25 -52 -22 -5 1 -8 -2 -8
-8 0 -16 14 -12 63 21 49 32 65 49 48 49 -6 0 -13 0 -16 0 -3 0 -14 9 -25 20
-22 22 -36 25 -45 9z"/>
<path d="M2813 2200 c2 -8 12 -16 23 -17 13 -2 15 -1 4 4 -8 3 -19 11 -23 17
-6 7 -7 6 -4 -4z"/>
<path d="M5010 2195 c0 -8 2 -15 4 -15 2 0 6 7 10 15 3 8 1 15 -4 15 -6 0 -10
-7 -10 -15z"/>
<path d="M2702 2180 c7 -11 21 -23 30 -26 10 -3 18 -10 18 -16 0 -6 3 -8 6 -5
4 4 -8 20 -26 37 -38 35 -45 38 -28 10z"/>
<path d="M5176 2185 c-3 -9 3 -19 14 -25 15 -8 21 -6 29 9 6 10 7 21 4 25 -12
11 -41 6 -47 -9z m38 -9 c-3 -8 -12 -12 -20 -9 -17 6 -9 23 11 23 8 0 12 -6 9
-14z"/>
<path d="M4947 2176 c-4 -10 -1 -13 9 -9 7 3 14 9 14 14 0 14 -17 10 -23 -5z"/>
<path d="M2659 2161 c-15 -17 -14 -18 21 -18 36 0 36 1 18 19 -21 21 -19 21
-39 -1z"/>
<path d="M2570 2161 c0 -6 4 -13 10 -16 6 -3 7 1 4 9 -7 18 -14 21 -14 7z"/>
<path d="M2817 2138 c-15 -17 -26 -33 -23 -36 6 -6 56 48 56 61 0 10 -1 9 -33
-25z"/>
<path d="M2887 2158 c2 -5 -1 -8 -6 -8 -17 0 -66 -60 -67 -81 -1 -10 3 -19 8
-19 6 0 8 6 5 14 -8 19 17 53 27 38 4 -7 12 -12 19 -12 6 0 3 6 -8 13 -17 13
-17 15 6 30 33 24 49 21 20 -3 -13 -11 -18 -20 -13 -20 9 0 62 46 62 53 0 2
-13 3 -29 2 -16 0 -27 -3 -24 -7z"/>
<path d="M2256 2148 c3 -5 10 -6 15 -3 13 9 11 12 -6 12 -8 0 -12 -4 -9 -9z"/>
<path d="M2922 2122 c-18 -19 -31 -36 -29 -38 4 -5 77 61 77 70 0 13 -16 2
-48 -32z"/>
<path d="M2954 2113 c-39 -40 -44 -53 -21 -53 6 0 7 3 4 7 -4 3 13 25 38 48
24 23 39 41 32 41 -7 -1 -30 -20 -53 -43z"/>
<path d="M4970 2156 c0 -2 7 -9 15 -16 13 -11 14 -10 9 4 -5 14 -24 23 -24 12z"/>
<path d="M5150 2152 c0 -4 10 -9 22 -9 18 -2 20 0 8 7 -18 12 -30 13 -30 2z"/>
<path d="M3114 2127 c1 -11 7 -22 14 -23 7 -1 8 0 2 3 -5 2 -10 9 -10 14 0 6
5 7 10 4 6 -3 10 -2 10 3 0 6 -6 12 -14 15 -9 4 -13 -2 -12 -16z"/>
<path d="M3153 2121 c0 -14 1 -18 4 -8 2 9 9 15 14 12 5 -4 9 -2 9 3 0 6 -6
12 -13 15 -8 3 -13 -4 -14 -22z"/>
<path d="M3193 2130 c-1 -11 2 -22 8 -25 5 -4 8 3 6 14 -4 28 -12 34 -14 11z"/>
<path d="M5065 2139 c-4 -6 -4 -13 -1 -16 3 -4 6 -1 6 6 0 9 5 9 20 1 11 -6
20 -8 20 -6 0 13 -39 26 -45 15z"/>
<path d="M5110 2146 c0 -3 9 -10 20 -16 11 -6 20 -8 20 -6 0 3 -9 10 -20 16
-11 6 -20 8 -20 6z"/>
<path d="M2720 2130 c-13 -8 -12 -10 3 -10 9 0 17 5 17 10 0 12 -1 12 -20 0z"/>
<path d="M2686 2113 c-6 -14 -5 -15 5 -6 7 7 10 15 7 18 -3 3 -9 -2 -12 -12z"/>
<path d="M3090 2100 c0 -5 5 -10 11 -10 5 0 7 5 4 10 -3 6 -8 10 -11 10 -2 0
-4 -4 -4 -10z"/>
<path d="M3167 2096 c-4 -10 -1 -13 8 -9 8 3 12 9 9 14 -7 12 -11 11 -17 -5z"/>
<path d="M3632 2085 c2 -72 -7 -80 -42 -45 -10 10 -22 15 -25 10 -3 -5 -12 -7
-20 -3 -8 3 -15 0 -15 -5 0 -6 12 -9 26 -6 14 3 23 1 20 -4 -3 -5 0 -9 7 -10
35 -3 53 -8 58 -15 3 -5 9 -1 12 8 4 9 3 13 -3 10 -6 -3 -10 1 -10 10 0 9 4
14 9 11 14 -9 22 24 11 42 -5 10 -10 13 -10 7 0 -5 -4 -3 -10 5 -6 11 -9 7 -8
-15z m28 -15 c0 -5 -4 -10 -10 -10 -5 0 -10 5 -10 10 0 6 5 10 10 10 6 0 10
-4 10 -10z"/>
<path d="M2770 2096 c0 -4 7 -14 15 -22 8 -9 15 -11 15 -6 0 5 -7 15 -15 22
-8 7 -15 9 -15 6z"/>
<path d="M2747 2077 c-3 -8 1 -14 8 -14 7 0 11 6 8 14 -3 7 -6 13 -8 13 -2 0
-5 -6 -8 -13z"/>
<path d="M3133 2084 c3 -4 2 -16 -4 -28 -10 -20 -10 -20 5 -2 19 24 20 36 4
36 -6 0 -8 -3 -5 -6z"/>
<path d="M3190 2080 c-8 -5 -12 -11 -9 -14 2 -3 11 -1 19 4 8 5 12 11 9 14 -2
3 -11 1 -19 -4z"/>
<path d="M3684 2079 c-5 -8 -3 -9 6 -4 10 6 12 4 7 -8 -7 -18 15 -29 41 -20
15 6 15 5 3 -10 -9 -11 -10 -17 -2 -17 6 0 11 4 11 8 0 4 9 8 20 9 23 2 25 -4
7 -20 -22 -20 -37 -18 -69 8 -17 14 -33 23 -37 19 -3 -4 -1 -9 6 -11 20 -7 64
-45 59 -50 -3 -3 -20 5 -38 18 -18 12 -30 19 -26 14 4 -4 0 -14 -10 -22 -15
-13 -15 -13 6 -3 16 8 22 8 22 -1 0 -7 3 -9 7 -6 3 4 13 1 21 -5 11 -10 17 -9
27 5 6 9 14 14 17 12 3 -3 13 4 23 15 18 20 18 21 -4 43 -21 21 -22 21 -16 2
6 -18 5 -18 -13 3 -23 25 -34 29 -26 7 4 -8 1 -15 -5 -15 -6 0 -11 6 -11 14 0
20 -17 29 -26 15z"/>
<path d="M2860 2074 c0 -5 7 -19 15 -30 15 -19 15 -19 9 1 -6 16 -5 18 7 8 7
-7 20 -13 29 -13 13 1 13 2 0 10 -9 5 -22 10 -30 12 -8 2 -18 8 -22 13 -5 7
-8 6 -8 -1z"/>
<path d="M2985 2070 c-3 -5 -2 -10 4 -10 5 0 13 5 16 10 3 6 2 10 -4 10 -5 0
-13 -4 -16 -10z"/>
<path d="M3540 2070 c0 -5 5 -10 10 -10 6 0 10 5 10 10 0 6 -4 10 -10 10 -5 0
-10 -4 -10 -10z"/>
<path d="M5305 2070 c-3 -6 1 -7 9 -4 18 7 21 14 7 14 -6 0 -13 -4 -16 -10z"/>
<path d="M3017 2055 c-8 -8 -18 -11 -22 -7 -5 4 -5 1 -1 -5 4 -7 2 -13 -3 -13
-6 0 -11 5 -11 12 0 6 -3 8 -7 4 -8 -8 35 -46 52 -45 6 0 2 6 -7 13 -17 12
-17 14 2 31 16 14 23 16 32 7 7 -7 17 -12 23 -12 11 1 -24 30 -36 30 -4 0 -14
-7 -22 -15z"/>
<path d="M3155 2060 c-3 -5 -1 -10 4 -10 6 0 11 5 11 10 0 6 -2 10 -4 10 -3 0
-8 -4 -11 -10z"/>
<path d="M3215 2060 c-3 -5 -1 -10 4 -10 6 0 11 5 11 10 0 6 -2 10 -4 10 -3 0
-8 -4 -11 -10z"/>
<path d="M3455 2050 c3 -5 11 -10 16 -10 6 0 7 5 4 10 -3 6 -11 10 -16 10 -6
0 -7 -4 -4 -10z"/>
<path d="M3806 2047 c3 -10 9 -15 12 -12 3 3 0 11 -7 18 -10 9 -11 8 -5 -6z"/>
<path d="M3094 2041 c4 -5 1 -12 -4 -14 -6 -3 -5 -4 2 -3 15 3 23 26 8 26 -6
0 -9 -4 -6 -9z"/>
<path d="M3176 2043 c-4 -4 -15 -8 -23 -8 -9 0 -18 -6 -20 -12 -3 -7 0 -13 7
-13 6 0 8 5 5 10 -12 19 10 9 33 -15 l23 -24 24 27 c13 15 21 29 19 31 -2 2
-13 -6 -24 -19 -16 -19 -22 -21 -35 -10 -15 13 -12 30 6 30 6 0 7 -4 4 -10 -3
-6 1 -7 10 -3 13 5 14 7 3 14 -16 11 -23 11 -32 2z"/>
<path d="M3353 2043 c-19 -7 -16 -19 6 -19 11 0 17 5 14 13 -3 7 -6 13 -7 12
0 0 -7 -3 -13 -6z"/>
<path d="M3030 2032 c0 -4 10 -9 22 -9 18 -2 20 0 8 7 -18 12 -30 13 -30 2z"/>
<path d="M3841 2031 c-7 -5 -11 -13 -7 -19 7 -12 -22 -38 -32 -27 -4 4 -1 10
6 12 6 3 12 9 12 15 0 7 -5 7 -13 -1 -8 -6 -14 -26 -14 -43 -1 -27 1 -29 7
-13 5 11 9 17 9 13 1 -5 10 1 22 13 11 11 18 23 15 26 -3 4 -1 12 5 20 13 15
10 16 -10 4z"/>
<path d="M3103 2005 c-3 -9 -3 -18 -1 -21 3 -3 8 4 11 16 6 23 -1 27 -10 5z"/>
<path d="M3241 2004 c-7 -8 -10 -18 -6 -22 3 -4 11 1 16 11 6 9 15 14 21 11 7
-4 8 -2 4 4 -9 16 -18 15 -35 -4z"/>
<path d="M3070 1999 c0 -5 5 -7 10 -4 6 3 10 8 10 11 0 2 -4 4 -10 4 -5 0 -10
-5 -10 -11z"/>
<path d="M3126 1988 c3 -4 11 -5 19 -1 21 7 19 12 -4 10 -11 0 -18 -5 -15 -9z"/>
<path d="M3855 1981 c-3 -6 -2 -11 3 -11 5 0 21 -17 35 -37 15 -21 27 -34 27
-29 0 4 11 1 25 -8 14 -9 25 -12 25 -7 0 5 -9 13 -20 16 -11 3 -20 11 -20 17
0 6 -3 9 -6 5 -7 -7 -22 7 -46 41 -10 15 -18 19 -23 13z"/>
<path d="M3975 1980 c-3 -5 -1 -10 4 -10 6 0 11 5 11 10 0 6 -2 10 -4 10 -3 0
-8 -4 -11 -10z"/>
<path d="M4000 1971 c-5 -11 -18 -18 -27 -17 -10 2 -12 1 -5 -1 7 -3 10 -9 7
-14 -4 -5 -2 -9 2 -9 5 0 17 14 26 30 10 17 16 30 13 30 -3 0 -10 -9 -16 -19z"/>
<path d="M3755 1969 c-4 -6 -4 -13 -1 -16 3 -4 6 -1 6 6 0 7 5 9 10 6 6 -3 10
-1 10 4 0 14 -17 14 -25 0z"/>
<path d="M3830 1964 c0 -7 60 -64 67 -64 4 0 -3 9 -15 20 -12 12 -22 25 -22
29 0 5 -7 11 -15 15 -8 3 -15 3 -15 0z"/>
<path d="M3313 1945 c0 -8 4 -12 9 -9 5 3 6 10 3 15 -9 13 -12 11 -12 -6z"/>
<path d="M4117 1944 c4 -12 3 -15 -5 -10 -7 4 -12 2 -12 -3 0 -6 5 -11 11 -11
5 0 7 -5 3 -12 -4 -7 -3 -8 5 -4 6 4 14 0 17 -8 3 -9 10 -13 16 -10 5 3 0 12
-11 20 -11 8 -18 21 -15 28 3 8 1 17 -5 21 -7 4 -8 0 -4 -11z"/>
<path d="M3814 1939 c1 -7 10 -13 19 -15 9 -1 15 2 11 7 -3 5 -9 7 -14 4 -4
-3 -11 0 -13 5 -3 6 -4 5 -3 -1z"/>
<path d="M3940 1929 c0 -5 5 -7 10 -4 6 3 10 8 10 11 0 2 -4 4 -10 4 -5 0 -10
-5 -10 -11z"/>
<path d="M4224 1918 c-3 -11 -3 -22 0 -25 3 -4 6 0 6 7 0 7 7 18 16 25 15 11
15 12 0 12 -8 0 -18 -9 -22 -19z"/>
<path d="M3390 1726 c0 -2 8 -10 18 -17 15 -13 16 -12 3 4 -13 16 -21 21 -21
13z"/>
</g>
</svg>
